<svg width="826" height="938" fill="none" xmlns="http://www.w3.org/2000/svg"><g filter="url(#a)" fill-rule="evenodd" clip-rule="evenodd"><path d="M532.821 261.504 423.46 232.135l-130.23 29.369-119.409 207.13 86.949 24.346 152.256-24.346 119.795-207.13Z" fill="#F16C12"/><path d="M293.207 261.517h239.591c0-88.494-48.304-166.168-119.795-207.517L293.207 261.517Z" fill="#EE521C"/><path d="M413 468.637H173.409L54 676.153l139.89 46.373 99.315-46.373L413 468.637Zm119.795 207.516 107.044 41.349L772 676.153c0-88.494-47.918-166.168-119.409-207.516h-.386l-119.41 207.516Z" fill="#F58709"/><path d="M293.205 676.172H54l119.795 207.13H413c-71.491-41.349-119.795-118.636-119.795-207.13Zm478.795 0H532.795L413 883.302h239.205L772 676.172Z" fill="#F9A100"/></g><defs><filter id="a" x="0" y="0" width="826" height="937.302" filterUnits="userSpaceOnUse" color-interpolation-filters="sRGB"><feFlood flood-opacity="0" result="BackgroundImageFix"/><feBlend in="SourceGraphic" in2="BackgroundImageFix" result="shape"/><feGaussianBlur stdDeviation="27" result="effect1_foregroundBlur_1133_858"/></filter></defs></svg>