<svg width="21" height="21" viewBox="0 0 21 21" fill="none" xmlns="http://www.w3.org/2000/svg">
<path fill-rule="evenodd" clip-rule="evenodd" d="M7.05767 5.81123V3.91906C7.05767 3.14666 7.68142 2.52051 8.45084 2.52051H12.6319C13.2639 2.52051 13.8658 2.79183 14.2857 3.26604L16.6607 5.9483C17.0208 6.3549 17.2196 6.88 17.2196 7.42401V13.7912C17.2196 14.5636 16.5959 15.1898 15.8265 15.1898H13.9416V16.662C13.9416 17.4344 13.3178 18.0605 12.5484 18.0605H5.38279C4.61337 18.0605 3.98962 17.4344 3.98962 16.662V7.20979C3.98962 6.43739 4.61337 5.81123 5.38279 5.81123H7.05767ZM8.20499 3.91906C8.20499 3.78276 8.31506 3.67226 8.45084 3.67226H12.6319C12.9362 3.67226 13.226 3.8029 13.4282 4.03122L15.8032 6.71348C15.9766 6.90925 16.0723 7.16208 16.0723 7.42401V13.7912C16.0723 13.9275 15.9622 14.038 15.8265 14.038H8.45084C8.31506 14.038 8.20499 13.9275 8.20499 13.7912V3.91906ZM12.7943 15.1898V16.662C12.7943 16.7983 12.6842 16.9088 12.5484 16.9088H5.38279C5.24701 16.9088 5.13694 16.7983 5.13694 16.662V7.20979C5.13694 7.07348 5.24701 6.96298 5.38279 6.96298H7.05767V13.7912C7.05767 14.5636 7.68142 15.1898 8.45084 15.1898H12.7943Z" fill="black"/>
</svg>
