<svg width="615" height="359" fill="none" xmlns="http://www.w3.org/2000/svg"><g clip-path="url(#a)" stroke="#D2D2D2" stroke-opacity=".5"><g opacity=".3"><path d="M334 925V-414M385 925V-414M436 925V-414M487 925V-414M538 925V-414M589 925V-414"/></g><g opacity=".3"><path d="M25 925V-414M76 925V-414M127 925V-414M178 925V-414M229 925V-414M280 925V-414"/></g><g opacity=".3"><path d="M-185 26h1440M-185 77h1440M-185 128h1440M-185 179h1440M-185 230h1440M-185 281h1440M-185 332h1440"/></g></g><defs><clipPath id="a"><path fill="#fff" d="M0 0h615v359H0z"/></clipPath></defs></svg>