<svg width="93" height="46" fill="none" xmlns="http://www.w3.org/2000/svg"><path clip-rule="evenodd" d="M20.1 19.195c3.782 0 7.295.514 9.944 1.377 3.192 1.04 5.155 2.615 5.155 4.042 0 1.486-2.08 3.16-5.508 4.235-2.591.812-6.001 1.236-9.591 1.236-3.681 0-7.167-.398-9.788-1.245C6.998 27.768 5 26.072 5 24.614c0-1.416 1.874-2.98 5.02-4.017 2.66-.877 6.26-1.402 10.08-1.402Z" stroke="#0A7EA4" stroke-width="2"/><path clip-rule="evenodd" d="M15.113 21.919c1.89-3.1 4.115-5.723 6.228-7.463 2.547-2.096 4.97-2.917 6.277-2.204 1.361.742 1.855 3.283 1.126 6.629-.55 2.53-1.866 5.536-3.66 8.478-1.838 3.016-3.944 5.674-6.029 7.398-2.638 2.182-5.188 2.971-6.524 2.242-1.296-.706-1.791-3.023-1.17-6.12.526-2.618 1.844-5.83 3.752-8.96Z" stroke="#0A7EA4" stroke-width="2"/><path clip-rule="evenodd" d="M15.118 27.367c-1.895-3.096-3.185-6.23-3.723-8.831-.649-3.134-.19-5.53 1.115-6.245 1.36-.745 3.934.119 6.634 2.387 2.041 1.714 4.138 4.294 5.936 7.233 1.845 3.014 3.227 6.067 3.764 8.637.68 3.251.13 5.736-1.204 6.467-1.295.709-3.664-.042-6.19-2.099-2.135-1.737-4.418-4.422-6.332-7.549Z" stroke="#0A7EA4" stroke-width="2"/><path d="M20.1 27.277c1.555 0 2.817-1.193 2.817-2.665s-1.262-2.665-2.817-2.665c-1.556 0-2.817 1.193-2.817 2.665s1.26 2.665 2.817 2.665Z" fill="#0A7EA4"/><path fill-rule="evenodd" clip-rule="evenodd" d="m47.916 26.487 3.453 4.935-1.88-.01-3.26-4.807h-2.55v4.808h-1.592v-12.1h5.138c2.34 0 4.008 1.424 4.008 3.647 0 2.185-1.572 3.381-3.317 3.527Zm1.67-3.518c0-1.361-1.035-2.305-2.551-2.305h-3.356v4.626h3.356v.002c1.515 0 2.55-.963 2.55-2.323ZM60.976 30.297c-.92.87-2.166 1.342-3.682 1.342v-.007c-2.743 0-4.718-1.86-4.718-4.6 0-2.54 1.917-4.59 4.563-4.59 2.8 0 4.45 2.069 4.45 4.698v.345h-7.497c.115 1.65 1.343 3.03 3.337 3.03 1.054 0 2.127-.4 2.857-1.107l.69.89Zm-3.854-6.732c-1.976 0-2.952 1.58-3.03 2.921h6.08c-.02-1.306-.94-2.92-3.05-2.92ZM67.555 22.441c1.957 0 3.586.835 3.586 2.957v6.023l-1.437-.001v-.997c-.767.798-1.822 1.215-3.069 1.215-1.574 0-3.242-.998-3.242-2.903 0-1.959 1.67-2.884 3.242-2.884 1.266 0 2.32.38 3.069 1.197v-1.577c0-1.18-.998-1.85-2.34-1.85-1.112 0-2.014.38-2.839 1.215l-.67-.944c.996-.98 2.184-1.451 3.7-1.451Zm-2.684 6.314c0 1.107.94 1.904 2.282 1.904 1.016 0 1.995-.363 2.55-1.088v-1.65c-.556-.727-1.534-1.09-2.55-1.09-1.342 0-2.282.799-2.282 1.924Z" fill="#2C2C2C"/><path d="M81.49 30.115c-.71.87-1.708 1.524-3.395 1.524v-.006c-2.762 0-4.622-1.988-4.622-4.6 0-2.595 1.86-4.59 4.622-4.59 1.687 0 2.685.652 3.394 1.523l-.959.834c-.605-.797-1.391-1.142-2.35-1.142-1.975 0-3.202 1.433-3.202 3.374 0 1.94 1.227 3.392 3.202 3.392.95 0 1.737-.363 2.35-1.143l.96.834ZM87.57 31.077c-.365.326-.884.562-1.727.562v.002c-1.362 0-2.052-.744-2.052-2.05v-5.734h-1.534V22.66h1.534v-2.395h1.439v2.395h1.88v1.197h-1.88v5.442c0 .653.307 1.125.94 1.125.41 0 .786-.164.978-.363l.422 1.016Z" fill="#2C2C2C"/><path clip-rule="evenodd" d="m47.916 26.487 3.453 4.935-1.88-.01-3.26-4.807h-2.55v4.808h-1.592v-12.1h5.138c2.34 0 4.008 1.424 4.008 3.647 0 2.185-1.572 3.381-3.317 3.527Zm1.67-3.518c0-1.361-1.035-2.305-2.551-2.305h-3.356v4.626h3.356v.002c1.515 0 2.55-.963 2.55-2.323ZM60.976 30.297c-.92.87-2.166 1.342-3.682 1.342v-.007c-2.743 0-4.718-1.86-4.718-4.6 0-2.54 1.917-4.59 4.563-4.59 2.8 0 4.45 2.069 4.45 4.698v.345h-7.497c.115 1.65 1.343 3.03 3.337 3.03 1.054 0 2.127-.4 2.857-1.107l.69.89Zm-3.854-6.732c-1.976 0-2.952 1.58-3.03 2.921h6.08c-.02-1.306-.94-2.92-3.05-2.92ZM67.555 22.441c1.957 0 3.586.835 3.586 2.957v6.023l-1.437-.001v-.997c-.767.798-1.822 1.215-3.069 1.215-1.574 0-3.242-.998-3.242-2.903 0-1.959 1.67-2.884 3.242-2.884 1.266 0 2.32.38 3.069 1.197v-1.577c0-1.18-.998-1.85-2.34-1.85-1.112 0-2.014.38-2.839 1.215l-.67-.944c.996-.98 2.184-1.451 3.7-1.451Zm-2.684 6.314c0 1.107.94 1.904 2.282 1.904 1.016 0 1.995-.363 2.55-1.088v-1.65c-.556-.727-1.534-1.09-2.55-1.09-1.342 0-2.282.799-2.282 1.924Z" stroke="#2C2C2C" stroke-width=".5"/><path d="M81.49 30.115c-.71.87-1.708 1.524-3.395 1.524v-.006c-2.762 0-4.622-1.988-4.622-4.6 0-2.595 1.86-4.59 4.622-4.59 1.687 0 2.685.652 3.394 1.523l-.959.834c-.605-.797-1.391-1.142-2.35-1.142-1.975 0-3.202 1.433-3.202 3.374 0 1.94 1.227 3.392 3.202 3.392.95 0 1.737-.363 2.35-1.143l.96.834ZM87.57 31.077c-.365.326-.884.562-1.727.562v.002c-1.362 0-2.052-.744-2.052-2.05v-5.734h-1.534V22.66h1.534v-2.395h1.439v2.395h1.88v1.197h-1.88v5.442c0 .653.307 1.125.94 1.125.41 0 .786-.164.978-.363l.422 1.016Z" stroke="#2C2C2C" stroke-width=".5"/></svg>